Tasha SILVERDUST
[img]http://bender1.zikuka.com/img/2009/10/03/f25b5285e60d5e55c8b579c4494d425a/image5106250.jpg[/img]

[img]http://bender1.zikuka.com/img/2009/10/03/1e1aab6541f164e2ff8f45fb04989e21/image5110390.jpg[/img]

[img]http://bender1.zikuka.com/img/2009/10/03/7d54c39be6088b0960e8255a6fe55176/image5113343.jpg[/img]

[img]http://bender1.zikuka.com/img/2009/10/03/a56df081843f63f81ebf5e70aec682fd/image5117390.jpg[/img]

[img]http://bender1.zikuka.com/img/2009/10/03/1e8410b02e6e75bb3599aa3f0b36f720/image5120859.jpg[/img]

[img]http://bender1.zikuka.com/img/2009/10/03/ff9d203e2680a942f9f8362cc5a043d1/image5124296.jpg[/img]

[img]http://bender1.zikuka.com/img/2009/10/03/dcd2ab92c19c4fe323b1b6c9a1d2a55a/image5127953.jpg[/img]

[img]http://bender1.zikuka.com/img/2009/10/03/cf568b717f46433d7d6bf683c8f778ed/image5131125.jpg[/img]

[img]http://bender1.zikuka.com/img/2009/10/03/282764c6238e9d174e266c84463dde53/image5136937.jpg[/img]

[img]http://bender1.zikuka.com/img/2009/10/03/d858a4f0cecaa7d4a64bbcd460e7d952/image5140484.jpg[/img]

[img]http://bender1.zikuka.com/img/2009/10/03/af28e64daaa9b4e57797aec28d5fa074/image5145968.jpg[/img]

[img]http://bender1.zikuka.com/img/2009/10/03/8440c321cd9edcb8d491dbd6b3a36af5/image5149062.jpg[/img]

[img]http://bender1.zikuka.com/img/2009/10/03/3454dde288e46e21e933a51635bbf784/image5153484.jpg[/img]

[img]http://bender1.zikuka.com/img/2009/10/03/26f51d84a82905a43e9acc4819a411be/image5156734.jpg[/img]

[img]http://bender1.zikuka.com/img/2009/10/03/bbe573a1ebc2f2a10ccc0bb8e3963990/image5162109.jpg[/img]

[img]http://bender1.zikuka.com/img/2009/10/03/5ea9e1b8747724f0b06040e0edb1f506/image5168359.jpg[/img]

[img]http://bender1.zikuka.com/img/2009/10/03/c89767a9f81645823790b9e7c1982587/image5170531.jpg[/img]

[img]http://bender1.zikuka.com/img/2009/10/03/a9dc3fd3f135168dfe2ae751cbc57c79/image5174328.jpg[/img]

[img]http://bender1.zikuka.com/img/2009/10/03/a334d0c2367bbb501a6f3b60adde4233/image5176875.jpg[/img]

[img]http://bender1.zikuka.com/img/2009/10/03/38b60faa1e94b9d85baf4b5224bee5fc/image5179421.jpg[/img]

[img]http://bender1.zikuka.com/img/2009/10/03/d72e37e231426c39c1d6f18011661c0f/image5181828.jpg[/img]

[img]http://bender1.zikuka.com/img/2009/10/03/8c73b48e2ccebec1baa43bdc68f17045/image5185375.jpg[/img]

[img]http://bender1.zikuka.com/img/2009/10/03/a8b86782e07ace1a47130018d7378aa1/image5189250.jpg[/img]

[img]http://bender1.zikuka.com/img/2009/10/03/40bc6780122c82836b0fe6c1da5eb149/image5191406.jpg[/img]

[img]http://bender1.zikuka.com/img/2009/10/03/c7178f241f452fe8cfc537d2e654b19e/image5194015.jpg[/img]

[img]http://bender1.zikuka.com/img/2009/10/03/f584d10b8aa0ecd9ff0a3f967b78eda3/image5197437.jpg[/img]

[img]http://bender1.zikuka.com/img/2009/10/03/b94d5f9dc86912a91f8ed6768edac32e/image5200343.jpg[/img]

[img]http://bender1.zikuka.com/img/2009/10/03/a547157fae309e34edab0e1a873b2526/image5203750.jpg[/img]

[img]http://bender1.zikuka.com/img/2009/10/03/2a50ed7877bb574d64f42d58649040a5/image5211171.jpg[/img]

[img]http://bender1.zikuka.com/img/2009/10/03/6189195876eec78512372abd6be4a70a/image5214312.jpg[/img]

[img]http://bender1.zikuka.com/img/2009/10/03/17ab6d7d7504fa898c9352be8743ab6d/image5216750.jpg[/img]

[img]http://bender1.zikuka.com/img/2009/10/03/a86b27911a406656dc320c60a6341dc9/image5220250.jpg[/img]

[img]http://bender1.zikuka.com/img/2009/10/03/5f44ca2a35b2032f1f52ce67d94576c5/image5224984.jpg[/img]

[img]http://bender1.zikuka.com/img/2009/10/03/8665156249c7eed6789f19d7bc6613ea/image5228562.jpg[/img]

[img]http://bender1.zikuka.com/img/2009/10/03/db629069446688e71bd680f8709b3048/image5231718.jpg[/img]

[img]http://bender1.zikuka.com/img/2009/10/03/c7058cfeb5d27e259d851e3d55c3d09b/image5235578.jpg[/img]
Format                           : AVI
Format/Info                      : Audio Video Interleave
File size                        : 209 MiB
Duration                         : 24mn 58s
Overall bit rate                 : 1 168 Kbps
Writing library                  : VirtualDub build 28204/release

Video
Format                           : MPEG-4 Visual
Format profile                   : Streaming Video@L1
Format settings, BVOP            : Yes
Format settings, QPel            : No
Format settings, GMC             : No warppoints
Format settings, Matrix          : Default
Muxing mode                      : Packed bitstream
Codec ID                         : XVID
Codec ID/Hint                    : XviD
Duration                         : 24mn 58s
Bit rate                         : 1 095 Kbps
Width                            : 832 pixels
Height                           : 468 pixels
Display aspect ratio             : 16/9
Frame rate                       : 25.000 fps
Resolution                       : 24 bits
Colorimetry                      : 4:2:0
Scan type                        : Progressive
Bits/(Pixel*Frame)               : 0.112
Stream size                      : 196 MiB (94%)
Writing library                  : XviD 

Audio
Format                           : MPEG Audio
Format version                   : Version 1
Format profile                   : Layer 3
Codec ID                         : 55
Codec ID/Hint                    : MP3
Duration                         : 24mn 58s
Bit rate mode                    : Constant
Bit rate                         : 64.0 Kbps
Channel(s)                       : 2 channels
Sampling rate                    : 48.0 KHz
Resolution                       : 16 bits
Stream size                      : 11.4 MiB (5%)
Alignment                        : Split accross interleaves
Interleave, duration             : 40 ms (1.00 video frame)
Interleave, preload duration     : 500 ms
Screens are posted for this file,how-ever some sites do not allow all picture hosts(and i do not have time upload pics to a certain host for a specific site).
I will not respond in this thread to any comments from now on(unless you are a member of a private site or are a respected member of a public site).
Thankyou to all the REAL contributors to the sites who keep the faith everyday.
Leechers,Ass-wipes,Zero posters keep on moaning into our deaf ears.
Contact? Old Skool-respected only (you know how);-)
[url]http://www.fhqhosting.com/ui/1ggggg.swf[/url]
[IMG]http://i43.servimg.com/u/f43/12/33/79/02/potpis10.gif[/IMG]
[IMG]http://www.myspaceninja.com/images/gg/glitterhkisses.gif[/IMG]